<svg id="visual" viewBox="0 0 1000 100" width="1000" height="100" xmlns="http://www.w3.org/2000/svg" xmlns:xlink="http://www.w3.org/1999/xlink" version="1.1">
    <rect x="0" y="0" width="1000" height="100" fill="none"></rect>
    <path d="M0 85L23.8 75.3C47.7 65.7 95.3 46.3 143 43.7C190.7 41 238.3 55 286 64.3C333.7 73.7 381.3 78.3 428.8 75.7C476.3 73 523.7 63 571.2 53.8C618.7 44.7 666.3 36.3 714 30.2C761.7 24 809.3 20 857 26.5C904.7 33 952.3 50 976.2 58.5L1000 67L1000 101L976.2 101C952.3 101 904.7 101 857 101C809.3 101 761.7 101 714 101C666.3 101 618.7 101 571.2 101C523.7 101 476.3 101 428.8 101C381.3 101 333.7 101 286 101C238.3 101 190.7 101 143 101C95.3 101 47.7 101 23.8 101L0 101Z" fill="#ffffff" stroke-linecap="round" stroke-linejoin="miter"></path>
</svg>