<?xml version="1.0" encoding="iso-8859-1"?>
<!-- Generator: Adobe Illustrator 19.0.0, SVG Export Plug-In . SVG Version: 6.00 Build 0)  -->
<svg version="1.1" id="Capa_1" xmlns="http://www.w3.org/2000/svg" xmlns:xlink="http://www.w3.org/1999/xlink" x="0px" y="0px"
	 viewBox="0 0 512 512" style="enable-background:new 0 0 512 512;" xml:space="preserve">
<g>
	<path style="fill:#EDCAA6;" d="M123.907,134.213c-10.508,0-19.026,8.519-19.026,19.026v14.667c0,10.508,8.518,19.026,19.026,19.026
		h8.928l-0.026-52.72L123.907,134.213L123.907,134.213z"/>
	<path style="fill:#EDCAA6;" d="M341.536,167.907V153.24c0-10.508-8.518-19.026-19.026-19.026h-7.872l-0.026,52.72h7.898
		C333.017,186.933,341.536,178.414,341.536,167.907z"/>
</g>
<path style="fill:#FFE2C0;" d="M359.271,339.671l-73.84-13.716c-9.478-1.905-16.297-12.9-16.297-22.568v-43.082h-45.926h-0.001
	h-45.926v43.082c0,9.668-6.819,20.663-16.297,22.568l-73.84,13.716c-35.122,10.341-59.236,42.58-59.236,79.192v82.211
	c0,6.023,4.882,10.905,10.905,10.905h368.789c6.023,0,10.905-4.882,10.905-10.905v-82.211
	C418.507,382.251,394.393,350.012,359.271,339.671z"/>
<path style="fill:#F4D3A6;" d="M359.271,339.671l-73.84-13.716c-9.478-1.905-16.297-12.9-16.297-22.568v-43.082h-41.549v68.229
	c0,9.668,6.819,20.663,16.297,22.568l73.84,13.716c35.122,10.341,59.236,42.579,59.236,79.192v67.969h30.644
	c6.023,0,10.905-4.882,10.905-10.905v-82.211C418.507,382.25,394.393,350.012,359.271,339.671z"/>
<polygon style="fill:#EDEDED;" points="216.999,480.989 216.999,480.99 216.999,480.99 "/>
<path style="fill:#FFE2C0;" d="M318.758,125.533v-18.286c0-25.819-10.6-50.838-30.165-67.685
	c-15.339-13.208-36.902-24.737-65.385-25.055c-28.483,0.318-50.045,11.846-65.385,25.055
	c-19.565,16.847-30.165,41.865-30.165,67.685v18.286v8.68l0.026,52.72c0.008,0.396,0.019,10.126,0.033,21.399
	c0.021,17.747,8.082,34.535,21.921,45.646l44.154,35.448c4.371,3.509,9.809,5.422,15.415,5.422h28.002
	c5.607,0,11.044-1.912,15.415-5.423c8.588-6.897,23.956-19.239,37.706-30.281c17.904-14.378,28.334-36.087,28.373-59.05
	c0.012-7.317,0.024-12.891,0.03-13.162l0.026-52.72L318.758,125.533L318.758,125.533z"/>
<path style="fill:#F4D3A6;" d="M288.593,39.562c-15.339-13.208-36.902-24.737-65.385-25.055c-7.459,0.083-14.439,0.941-20.961,2.391
	c18.383,4.086,33.1,12.914,44.422,22.663c19.565,16.847,30.165,41.865,30.165,67.685v18.286v8.68l-0.026,52.72
	c-0.006,0.271-0.017,5.846-0.029,13.162c-0.039,22.963-10.469,44.672-28.373,59.05c-13.75,11.042-29.118,23.384-37.706,30.281
	c-2.521,2.025-5.403,3.498-8.461,4.399c2.247,0.667,4.59,1.024,6.967,1.024h28.002c5.607,0,11.044-1.912,15.415-5.423
	c8.588-6.897,23.956-19.239,37.706-30.281c17.904-14.378,28.334-36.087,28.373-59.05c0.012-7.317,0.024-12.891,0.029-13.162
	l0.026-52.72v-8.68v-18.286C318.758,81.427,308.158,56.408,288.593,39.562z"/>
<path style="fill:#9E5015;" d="M288.561,1.732c-6.579-3.386-19.997-1.322-33.003,2.037c-20.994,5.422-43.707,5.422-64.7,0
	c-13.007-3.359-26.424-5.423-33.003-2.037C130.403,15.86,113.18,127.407,113.18,127.407h220.058
	C333.237,127.407,316.014,15.86,288.561,1.732z"/>
<path style="fill:#87400F;" d="M288.561,1.732c-6.579-3.386-19.997-1.322-33.003,2.037c-1.684,0.435-3.382,0.822-5.087,1.187
	c24.841,22.935,40.21,122.45,40.21,122.45h42.555C333.237,127.407,316.014,15.86,288.561,1.732z"/>
<path style="fill:#E8B287;" d="M223.208,109.892c-66.062,0-121.797,12.859-139.222,30.441c-4.291,4.33-1.2,11.691,4.896,11.691
	h268.653c6.096,0,9.187-7.362,4.896-11.691C345.005,122.751,289.27,109.892,223.208,109.892z"/>
<path style="fill:#9E5015;" d="M359.271,339.671l-73.84-13.716l-62.223,144.829l-62.223-144.829l-73.84,13.716
	c-35.122,10.341-59.236,42.58-59.236,79.192v82.211c0,6.023,4.882,10.905,10.905,10.905h368.789c6.023,0,10.905-4.882,10.905-10.905
	v-82.211C418.507,382.251,394.393,350.012,359.271,339.671z"/>
<path style="fill:#87400F;" d="M359.271,339.671l-73.84-13.716l-3.1,7.214l35.001,6.502c35.122,10.341,59.236,42.58,59.236,79.192
	v93.115h31.033c6.023,0,10.905-4.882,10.905-10.905v-82.211C418.507,382.25,394.392,350.012,359.271,339.671z"/>
<g>
	<path style="fill:#E8B287;" d="M223.208,470.784l-59.761-139.097c-1.197-2.785-0.203-6.086,2.418-7.609
		c6.852-3.981,11.417-12.78,11.417-20.69V288.61h-21.855c-26.03,0-47.132,21.102-47.132,47.132l42.077,40.912
		c1.895,1.842,2.494,4.643,1.52,7.1l-8.885,22.393c-1.099,2.771-0.186,5.934,2.222,7.692L223.208,470.784z"/>
	<path style="fill:#E8B287;" d="M223.208,470.784l59.761-139.097c1.197-2.785,0.203-6.086-2.418-7.609
		c-6.852-3.981-11.417-12.78-11.417-20.69V288.61h21.855c26.03,0,47.132,21.102,47.132,47.132l-42.077,40.912
		c-1.895,1.842-2.494,4.643-1.52,7.1l8.885,22.393c1.099,2.771,0.186,5.934-2.222,7.692L223.208,470.784z"/>
</g>
<path style="fill:#9EBECC;" d="M172.085,351.792l51.123,118.992l51.123-118.992l0,0C241.59,365.316,204.825,365.316,172.085,351.792
	L172.085,351.792z"/>
<g>
	<path style="fill:#87400F;" d="M85.685,433.688c-4.267,0-7.726,3.459-7.726,7.726v70.564h15.452v-70.564
		C93.411,437.147,89.952,433.688,85.685,433.688z"/>
	<path style="fill:#87400F;" d="M360.731,433.688c-4.267,0-7.726,3.459-7.726,7.726v70.564h15.452v-70.564
		C368.457,437.147,364.998,433.688,360.731,433.688z"/>
</g>
<g>
	<polygon style="fill:#9EBECC;" points="331.804,461.092 318.627,447.914 351.936,414.777 365.114,427.954 	"/>
	<path style="fill:#9EBECC;" d="M406.478,450.076c42.865,0,77.614-34.749,77.614-77.614s-34.749-77.614-77.614-77.614
		s-77.614,34.749-77.614,77.614C328.864,415.327,363.613,450.076,406.478,450.076z"/>
</g>
<path style="fill:#82ADBC;" d="M444.674,304.907c6.392,11.279,10.058,24.306,10.058,38.196c0,42.865-34.749,77.614-77.614,77.614
	c-13.89,0-26.917-3.667-38.196-10.058c13.332,23.529,38.581,39.417,67.555,39.417c42.865,0,77.614-34.749,77.614-77.614
	C484.091,343.488,468.203,318.239,444.674,304.907z"/>
<path style="fill:#8DFFFF;" d="M406.478,422.458c27.612,0,49.996-22.384,49.996-49.996s-22.384-49.996-49.996-49.996
	s-49.996,22.384-49.996,49.996C356.481,400.074,378.865,422.458,406.478,422.458z"/>
<path style="fill:#2D5872;" d="M280.998,509.879l-11.937-11.937c-2.828-2.828-2.828-7.414,0-10.243l43.952-43.952
	c2.828-2.828,7.414-2.828,10.243,0l11.937,11.937c2.828,2.828,2.828,7.414,0,10.243l-43.952,43.952
	C288.412,512.707,283.827,512.707,280.998,509.879z"/>
<g>
</g>
<g>
</g>
<g>
</g>
<g>
</g>
<g>
</g>
<g>
</g>
<g>
</g>
<g>
</g>
<g>
</g>
<g>
</g>
<g>
</g>
<g>
</g>
<g>
</g>
<g>
</g>
<g>
</g>
</svg>
