<svg height="512" viewBox="0 0 64 64" width="512" xmlns="http://www.w3.org/2000/svg"><path d="m3 16h58v40h-58z" fill="#009698"/><path d="m40 12h17v40h-17z" fill="#ffc477"/><path d="m47 8v40a4 4 0 0 0 -4-4h-5v-40h5a4 4 0 0 1 4 4z" fill="#ffdaaa"/><path d="m47 48a3.995 3.995 0 0 1 -4 4h-7a4 4 0 0 0 -4 4v-40a4 4 0 0 1 4-4h2v32h5a4 4 0 0 1 4 4z" fill="#ff9811"/><path d="m32 16v40a4 4 0 0 0 -4-4h-21v-40h21a4 4 0 0 1 4 4z" fill="#ffb655"/><path d="m13 10h6v4h-6z" fill="#a7adf0"/><path d="m19 9v1h-6v-1a3 3 0 0 1 6 0z" fill="#57565c"/><path d="m18.68 38-2.68 6-2.68-6z" fill="#57565c"/><path d="m19 14v23.29l-.32.71h-5.36l-.32-.71v-23.29z" fill="#d80027"/><path d="m15 14h2v24h-2z" fill="#e03352"/></svg>