<svg xmlns="http://www.w3.org/2000/svg" version="1.1" xmlns:xlink="http://www.w3.org/1999/xlink" xmlns:svgjs="http://svgjs.com/svgjs" width="512" height="512" x="0" y="0" viewBox="0 0 512 512" style="enable-background:new 0 0 512 512" xml:space="preserve"><g><g xmlns="http://www.w3.org/2000/svg"><path d="m134.073 273.371h63.049v146.067h-63.049z" fill="#407093" transform="matrix(.707 .707 -.707 .707 293.448 -15.636)" data-original="#407093"/><path d="m138.69 262.226h31.524v146.067h-31.524z" fill="#365e7d" transform="matrix(.707 .707 -.707 .707 282.302 -11.019)" data-original="#365e7d"/><circle cx="325.138" cy="186.864" fill="#ffe07d" r="186.862" data-original="#ffe07d"/><path d="m340.909 373.065c-5.198.442-10.46.664-15.768.664-103.204 0-186.864-83.676-186.864-186.864 0-103.205 83.659-186.865 186.864-186.865 5.309 0 10.57.221 15.768.664-95.842 7.995-171.112 88.305-171.112 186.2 0 97.88 75.27 178.206 171.112 186.201z" fill="#ffd064" data-original="#ffd064"/><circle cx="325.138" cy="186.864" fill="#d3effb" r="132.1" data-original="#d3effb"/><path d="m351.465 316.331c-8.503 1.719-17.307 2.623-26.322 2.623-72.965 0-132.105-59.14-132.105-132.09 0-72.965 59.14-132.105 132.105-132.105 9.015 0 17.819.905 26.322 2.623-60.347 12.196-105.784 65.532-105.784 129.482 0 63.935 45.437 117.271 105.784 129.467z" fill="#b1e4f9" data-original="#b1e4f9"/><path d="m45.09 503.457-36.545-36.544c-11.39-11.39-11.39-29.856 0-41.246l92.706-92.706c11.39-11.39 29.856-11.39 41.245 0l36.544 36.544c11.39 11.39 11.39 29.856 0 41.246l-92.706 92.706c-11.388 11.39-29.855 11.39-41.244 0z" fill="#a77d73" data-original="#a77d73"/><path d="m35.293 493.66-26.746-26.746c-11.396-11.396-11.396-29.852 0-41.248l92.705-92.705c11.396-11.396 29.852-11.396 41.248 0l26.746 26.746c-11.396-11.396-29.852-11.396-41.248 0l-92.705 92.705c-11.396 11.396-11.396 29.852 0 41.248z" fill="#98695e" data-original="#98695e"/><g><path d="m365.055 186.864 23.715-23.715c11.022-11.023 11.022-28.894 0-39.916-11.023-11.023-28.894-11.023-39.917 0l-23.715 23.715-23.715-23.715c-11.023-11.023-28.894-11.023-39.916 0-11.023 11.023-11.023 28.894 0 39.916l23.715 23.715-23.715 23.715c-11.023 11.023-11.023 28.894 0 39.916 11.023 11.023 28.894 11.023 39.916 0l23.715-23.715 23.715 23.715c11.023 11.023 28.894 11.023 39.917 0 11.022-11.023 11.022-28.894 0-39.916z" fill="#dd636e" data-original="#dd636e"/></g></g></g></svg>