<svg height="512pt" viewBox="0 -17 512.001 512" width="512pt" xmlns="http://www.w3.org/2000/svg"><path d="m488.183594 478.914062h-464.367188c-13.152344 0-23.816406-10.664062-23.816406-23.816406v-427.929687c0-15.003907 12.164062-27.167969 27.164062-27.167969h459.105469c14.210938 0 25.730469 11.519531 25.730469 25.730469v429.367187c0 13.152344-10.664062 23.816406-23.816406 23.816406zm0 0" fill="#f4f4f4"/><path d="m486.273438 0h-11.949219c.761719 2.464844 1.171875 5.082031 1.171875 7.796875v463.320313c0 2.714843-.410156 5.332031-1.171875 7.796874h13.859375c13.15625 0 23.816406-10.664062 23.816406-23.816406v-429.371094c0-14.207031-11.519531-25.726562-25.726562-25.726562zm0 0" fill="#e8e8e8"/><path d="m0 92.164062h512v-67.628906c0-13.550781-10.984375-24.535156-24.535156-24.535156h-462.929688c-13.550781 0-24.535156 10.984375-24.535156 24.535156zm0 0" fill="#5994ce"/><path d="m487.464844 0h-13.140625c.761719 2.464844 1.171875 5.082031 1.171875 7.796875v84.367187h36.503906v-67.628906c0-13.550781-10.984375-24.535156-24.535156-24.535156zm0 0" fill="#4c7eb0"/><path d="m79.640625 46.082031c0 10.042969-8.140625 18.1875-18.1875 18.1875-10.042969 0-18.183594-8.144531-18.183594-18.1875s8.140625-18.1875 18.183594-18.1875c10.046875 0 18.1875 8.144531 18.1875 18.1875zm0 0" fill="#fa5d72"/><path d="m141.207031 46.082031c0 10.042969-8.144531 18.1875-18.1875 18.1875-10.046875 0-18.1875-8.144531-18.1875-18.1875s8.140625-18.1875 18.1875-18.1875c10.042969 0 18.1875 8.144531 18.1875 18.1875zm0 0" fill="#f6d867"/><path d="m202.769531 46.082031c0 10.042969-8.144531 18.1875-18.1875 18.1875s-18.1875-8.144531-18.1875-18.1875 8.144531-18.1875 18.1875-18.1875 18.1875 8.144531 18.1875 18.1875zm0 0" fill="#279463"/><path d="m0 92.164062v362.214844c0 13.550782 10.984375 24.535156 24.535156 24.535156h141.859375v-386.75zm0 0" fill="#a7c3de"/><path d="m151.5 92.164062h14.894531v386.75h-14.894531zm0 0" fill="#93acc4"/><path d="m314.011719 226.582031h-107.78125c-4.375 0-7.921875-3.546875-7.921875-7.921875v-80.789062c0-4.375 3.546875-7.921875 7.921875-7.921875h107.78125c4.375 0 7.921875 3.546875 7.921875 7.921875v80.789062c0 4.375-3.546875 7.921875-7.921875 7.921875zm0 0" fill="#fa5d72"/><path d="m314.011719 129.949219h-18.714844c.710937 1.285156 1.121094 2.757812 1.121094 4.328125v87.976562c0 1.570313-.410157 3.046875-1.121094 4.328125h18.714844c4.375 0 7.921875-3.546875 7.921875-7.921875v-80.789062c0-4.375-3.546875-7.921875-7.921875-7.921875zm0 0" fill="#e35567"/><path d="m472.292969 226.582031h-104.988281c-5.144532 0-9.316407-4.167969-9.316407-9.316406v-78c0-5.144531 4.171875-9.316406 9.316407-9.316406h104.988281c5.144531 0 9.316406 4.171875 9.316406 9.316406v78c0 5.148437-4.171875 9.316406-9.316406 9.316406zm0 0" fill="#fa5d72"/><path d="m472.292969 129.949219h-17.253907c1.179688 1.699219 1.875 3.753906 1.875 5.980469v84.675781c0 2.222656-.695312 4.28125-1.875 5.980469h17.253907c5.144531 0 9.316406-4.171876 9.316406-9.320313v-78c0-5.144531-4.171875-9.316406-9.316406-9.316406zm0 0" fill="#e35567"/><path d="m473.6875 364.613281h-267.457031c-4.375 0-7.921875-3.546875-7.921875-7.921875v-89.234375c0-4.375 3.546875-7.921875 7.921875-7.921875h267.457031c4.375 0 7.921875 3.546875 7.921875 7.921875v89.234375c0 4.375-3.546875 7.921875-7.921875 7.921875zm0 0" fill="#fa5d72"/><path d="m473.6875 259.535156h-17.789062c.394531 1.015625.617187 2.113282.617187 3.265625v98.546875c0 1.152344-.226563 2.25-.617187 3.265625h17.789062c4.375 0 7.921875-3.546875 7.921875-7.921875v-89.234375c0-4.375-3.546875-7.921875-7.921875-7.921875zm0 0" fill="#e35567"/><path d="m474.226562 435.257812h-267.996093c-4.375 0-7.921875-3.546874-7.921875-7.921874v-17.941407c0-4.375 3.546875-7.921875 7.921875-7.921875h267.996093c4.375 0 7.921876 3.546875 7.921876 7.921875v17.941407c0 4.375-3.546876 7.921874-7.921876 7.921874zm0 0" fill="#fba826"/><path d="m473.988281 401.472656h-23.695312c4.507812 0 8.160156 3.652344 8.160156 8.160156v17.464844c0 4.507813-3.652344 8.160156-8.160156 8.160156h23.695312c4.507813 0 8.160157-3.652343 8.160157-8.160156v-17.464844c0-4.507812-3.652344-8.160156-8.160157-8.160156zm0 0" fill="#e09721"/><g fill="#495663"><path d="m465.984375 46.082031c0-4.265625-3.457031-7.726562-7.726563-7.726562h-188.179687c-4.265625 0-7.726563 3.460937-7.726563 7.726562s3.460938 7.726563 7.726563 7.726563h188.179687c4.269532 0 7.726563-3.460938 7.726563-7.726563zm0 0"/><path d="m32.203125 143.136719h101.988281c4.265625 0 7.726563-3.460938 7.726563-7.726563 0-4.269531-3.460938-7.726562-7.726563-7.726562h-101.988281c-4.265625 0-7.726563 3.457031-7.726563 7.726562 0 4.265625 3.460938 7.726563 7.726563 7.726563zm0 0"/><path d="m32.203125 191.46875h101.988281c4.265625 0 7.726563-3.460938 7.726563-7.726562 0-4.269532-3.460938-7.726563-7.726563-7.726563h-101.988281c-4.265625 0-7.726563 3.457031-7.726563 7.726563 0 4.265624 3.460938 7.726562 7.726563 7.726562zm0 0"/><path d="m32.203125 239.800781h101.988281c4.265625 0 7.726563-3.460937 7.726563-7.726562 0-4.269531-3.460938-7.726563-7.726563-7.726563h-101.988281c-4.265625 0-7.726563 3.457032-7.726563 7.726563 0 4.265625 3.460938 7.726562 7.726563 7.726562zm0 0"/><path d="m32.203125 288.128906h101.988281c4.265625 0 7.726563-3.457031 7.726563-7.722656 0-4.269531-3.460938-7.726562-7.726563-7.726562h-101.988281c-4.265625 0-7.726563 3.457031-7.726563 7.726562 0 4.265625 3.460938 7.722656 7.726563 7.722656zm0 0"/></g></svg>