<svg id="Capa_1" enable-background="new 0 0 506.911 506.911" height="512" viewBox="0 0 506.911 506.911" width="512" xmlns="http://www.w3.org/2000/svg"><g><path d="m150.17 393.986h189.009l11.57 72.303-101.735 16.279-110.414-16.279z" fill="#fd3581"/><path d="m339.179 393.986h-22.226l11.571 72.303 9.211 7.832 13.014-7.832z" fill="#fe0364"/><path d="m486.893 226.578v68.52c0 3.39-1.03 6.71-2.97 9.49l-31.5 45.31c-3.11 4.48-8.21 7.14-13.66 7.14h-102.52l1.9-29.99h87.077c4.111 0 7.962-2.013 10.308-5.39l18.608-26.783c1.795-2.583 2.757-5.654 2.757-8.799l.025-53.107c.002-4.904-3.973-8.882-8.877-8.882h-103.398l1.9-30h107.86c17.95.001 32.49 14.551 32.49 32.491z" fill="#fd3581"/><path d="m454.403 194.088h-17.225c17.95 0 32.49 14.55 32.49 32.49v68.52c0 3.39-1.03 6.71-2.97 9.49l-31.5 45.31c-3.11 4.48-8.21 7.14-13.66 7.14h17.225c5.45 0 10.55-2.66 13.66-7.14l31.5-45.31c1.94-2.78 2.97-6.1 2.97-9.49v-68.52c0-17.94-14.54-32.49-32.49-32.49z" fill="#fe0364"/><path d="m401.46 160.318v143.08c0 15.13-1.49 30.22-4.45 45.06l-3.45 17.27c-7.03 35.23-37.96 60.6-73.89 60.6h-149.99c-35.93 0-66.86-25.37-73.89-60.6l-3.45-17.27c-2.96-14.84-4.45-29.93-4.45-45.06v-143.08c0-9.3 7.53-16.83 16.82-16.83h71.69l7.501 4.868 7.499-4.868h193.24c9.29 0 16.82 7.53 16.82 16.83z" fill="#fe5694"/><path d="m384.64 143.49h-22.225c9.291 0 16.823 7.532 16.823 16.823v143.09c0 15.127-1.492 30.216-4.453 45.05l-3.449 17.276c-7.034 35.232-37.964 60.598-73.892 60.598h22.225c35.928 0 66.858-25.366 73.892-60.598l3.449-17.276c2.961-14.834 4.453-29.924 4.453-45.05v-143.09c0-9.291-7.532-16.823-16.823-16.823z" fill="#fd3581"/><path d="m37.493 506.911h414.363c4.584 0 8.667-2.896 10.184-7.221l6.675-19.039c2.46-7.017-2.748-14.362-10.184-14.362h-427.713c-7.436 0-12.644 7.344-10.184 14.362l6.675 19.039c1.516 4.325 5.6 7.221 10.184 7.221z" fill="#978ecb"/><path d="m458.531 466.289h-22.225c7.436 0 12.644 7.344 10.184 14.362l-6.675 19.039c-1.516 4.326-5.6 7.221-10.184 7.221h22.225c4.584 0 8.667-2.896 10.184-7.221l6.675-19.039c2.459-7.018-2.749-14.362-10.184-14.362z" fill="#8379c1"/><g><path d="m191.4 143.488v78.83c0 4.15-3.36 7.5-7.5 7.5s-7.5-3.35-7.5-7.5v-78.83z" fill="#8ac9fe"/></g><g><g><path d="m183.473 103.579c-4.142 0-7.5-3.358-7.5-7.5 0-14.519 6.2-28.405 17.01-38.097 7.642-6.85 12.024-16.666 12.024-26.928v-23.554c0-4.142 3.358-7.5 7.5-7.5s7.5 3.358 7.5 7.5v23.553c0 14.52-6.2 28.405-17.011 38.097-7.641 6.851-12.023 16.666-12.023 26.928 0 4.143-3.358 7.501-7.5 7.501z" fill="#d8ecfe"/></g><g><path d="m245.154 118.626c-4.142 0-7.5-3.358-7.5-7.5v-16.312c0-4.142 3.358-7.5 7.5-7.5s7.5 3.358 7.5 7.5v16.312c0 4.142-3.358 7.5-7.5 7.5z" fill="#d8ecfe"/></g><g><path d="m247.086 67.19c-.73 0-1.473-.107-2.208-.333-3.959-1.218-6.181-5.415-4.963-9.374 2.731-8.88 7.832-16.852 14.749-23.054 7.642-6.851 12.024-16.666 12.024-26.929 0-4.142 3.358-7.5 7.5-7.5s7.5 3.358 7.5 7.5c0 14.52-6.2 28.405-17.011 38.097-4.89 4.384-8.495 10.019-10.425 16.296-.992 3.224-3.96 5.297-7.166 5.297z" fill="#d8ecfe"/></g><g><path d="m305.876 112.589c-4.142 0-7.5-3.358-7.5-7.5v-59.591c0-4.142 3.358-7.5 7.5-7.5s7.5 3.358 7.5 7.5v59.591c0 4.142-3.358 7.5-7.5 7.5z" fill="#d8ecfe"/></g></g><path d="m211.566 293.331h-55.33c-8.868 0-15.884-7.507-15.283-16.355l3.52-51.881c.545-8.039 7.226-14.281 15.283-14.281h48.29c8.058 0 14.738 6.242 15.283 14.281l3.52 51.881c.601 8.847-6.414 16.355-15.283 16.355z" fill="#fef6ad"/><path d="m226.85 276.975-3.52-51.881c-.545-8.039-7.226-14.281-15.283-14.281h-22.225c8.058 0 14.738 6.242 15.283 14.281l3.52 51.881c.6 8.848-6.415 16.355-15.283 16.355h22.225c8.868.001 15.883-7.507 15.283-16.355z" fill="#fef056"/></g></svg>