<svg xmlns="http://www.w3.org/2000/svg" viewBox="0 0 640 640" style="enable-background:new 0 0 512 512" xml:space="preserve"><path xmlns="http://www.w3.org/2000/svg" d="M334.457 0H72.125C32.652 0 0 32.484 0 71.957v496.086C0 607.516 32.652 640 72.125 640h356.059c39.472 0 72.117-32.484 72.117-71.957V173.969zm0 0" fill="#b9b9b9" data-original="#00acea"/><path xmlns="http://www.w3.org/2000/svg" d="m335.27.488 165.199 173.64H390.496c-30.535 0-55.226-24.687-55.226-55.222zm0 0" fill="#d9d9d9" data-original="#00efd1"/><path d="M383.836 511.676H116.465c-8.93 0-16.238 7.308-16.238 16.242 0 8.937 7.308 16.246 16.238 16.246H384c8.934 0 16.242-7.309 16.242-16.246 0-8.934-7.308-16.242-16.406-16.242zM238.297 453.36c3.086 3.25 7.308 5.199 11.855 5.199 4.543 0 8.77-1.95 11.86-5.2l95.023-102.171c6.172-6.497 5.684-16.891-.816-22.903-6.492-6.172-16.887-5.687-22.899.813l-66.922 71.957v-177.38c0-8.933-7.312-16.245-16.246-16.245-8.937 0-16.246 7.312-16.246 16.246v177.379l-66.922-71.957c-6.172-6.5-16.406-6.985-22.902-.813-6.5 6.172-6.988 16.406-.816 22.903zm0 0" data-original="#083863" xmlns="http://www.w3.org/2000/svg" fill="#535353"/></svg>