<?xml version="1.0" encoding="UTF-8" standalone="no"?>
<svg version="1.1" width="512" height="512" x="0" y="0" viewBox="0 0 58 58" style="enable-background:new 0 0 512 512" xml:space="preserve" id="svg24" sodipodi:docname="logo.svg" inkscape:version="1.2.1 (9c6d41e410, 2022-07-14)" xmlns:inkscape="http://www.inkscape.org/namespaces/inkscape" xmlns:sodipodi="http://sodipodi.sourceforge.net/DTD/sodipodi-0.dtd" xmlns="http://www.w3.org/2000/svg" xmlns:svg="http://www.w3.org/2000/svg">
  <defs id="defs28" />
  <sodipodi:namedview id="namedview26" pagecolor="#ffffff" bordercolor="#000000" borderopacity="0.25" inkscape:showpageshadow="2" inkscape:pageopacity="0.0" inkscape:pagecheckerboard="0" inkscape:deskcolor="#d1d1d1" showgrid="false" inkscape:zoom="0.40604105" inkscape:cx="-528.27171" inkscape:cy="150.23112" inkscape:window-width="1854" inkscape:window-height="1016" inkscape:window-x="66" inkscape:window-y="27" inkscape:window-maximized="1" inkscape:current-layer="svg24" />
  <path id="Shape" d="M 5.72,52.21 0.17,20.7 C 0.11640989,20.395875 0.08300357,20.088537 0.07,19.78 -0.01248096,16.207591 2.5526727,13.121724 6.08,12.55 L 16.79,10.66 16.5,52.21 Z" fill="#35495e" data-original="#35495e" class="" style="display:inline;fill:#35405e;fill-opacity:1" />
  <path id="path3" d="m 46.94,50.83 c -0.185719,0.771023 -0.809475,1.359472 -1.59,1.5 L 13.83,57.89 C 11.843279,58.23683 9.8034214,57.711316 8.2315838,56.447719 6.6597463,55.184123 5.7081807,53.304838 5.62,51.29 5.541234,47.874437 7.8927732,44.881569 11.23,44.15 l 8.83,2.48 h -0.01 l -7.95,1.41 c -0.886656,0.155843 -1.656734,0.700997 -2.098366,1.485475 C 9.5600017,50.309953 9.4933439,51.251107 9.82,52.09 c 0.565621,1.351145 2.002159,2.119526 3.44,1.84 l 24.09,-4.25 z" fill="#2c3e50" data-original="#2c3e50" class="" style="enable-background:new 0 0 512 512;fill:#2c3050;fill-opacity:1" />
  <path id="path5" d="m 20.05,46.63 -7.95,1.41 c -0.886655,0.155843 -1.656734,0.700997 -2.098366,1.485475 C 9.5600017,50.309953 9.493344,51.251107 9.82,52.09 c 0.565621,1.351145 2.002159,2.119526 3.44,1.84 l 24.09,-4.25 z" fill="#f9eab0" data-original="#f9eab0" class="" style="enable-background:new 0 0 512 512;fill:#ffffff" />
  <path id="path7" d="M 12.826,33.171 18.383,1.657 C 18.581919,0.57375321 19.614087,-0.14880869 20.7,0.035 L 51.977,5.55 c 3.529861,0.5721671 6.097016,3.6600079 6.015,7.235 -0.0136,0.307166 -0.04701,0.613134 -0.1,0.916 l -5.557,31.514 z" fill="#e64c3c" data-original="#e64c3c" class="" style="enable-background:new 0 0 512 512;fill:#0d6efd;fill-opacity:1" />
  <path id="path14" d="m 57.99,12.78 c -0.01191,0.308618 -0.04532,0.616031 -0.1,0.92 l -5.56,31.51 -7.71,-2.35 4.47,-25.34 1.06,-5.98 1.08,-6.12 0.75,0.13 c 3.525717,0.5745422 6.089416,3.6586597 6.01,7.23 z" fill="#c03a2b" data-original="#c03a2b" class="" style="enable-background:new 0 0 512 512;fill:#3d8cfc;fill-opacity:1" />
  <path id="path16" d="M 46.42,37.06 15.14,31.55 c -0.115605,-0.01991 -0.232694,-0.02995 -0.35,-0.03 -1.036467,0.0026 -1.899192,0.796644 -1.987633,1.829334 -0.08844,1.03269 0.626707,1.961838 1.647633,2.140666 l 31.51,5.55 c 0.885879,0.160425 1.653606,0.708589 2.092959,1.494392 0.439353,0.785804 0.504294,1.726905 0.177041,2.565608 -0.562561,1.348155 -1.99694,2.113436 -3.43,1.83 L 13.41,41.4 C 13.294395,41.38009 13.177306,41.37006 13.06,41.37 12.021615,41.3674 11.153993,42.159976 11.062801,43.194353 10.97161,44.228729 11.687184,45.16084 12.71,45.34 l 31.52,5.55 c 1.985274,0.348036 4.024276,-0.175678 5.596099,-1.437348 C 51.397922,48.190981 52.350327,46.313554 52.44,44.3 52.51849,40.723493 49.950786,37.635426 46.42,37.06 Z" fill="#802f34" data-original="#802f34" class="" style="enable-background:new 0 0 512 512;fill:#235298;fill-opacity:1" />
  <path id="path18" d="m 48.23,45.1 c -0.562561,1.348155 -1.99694,2.113436 -3.43,1.83 l -31.39,-5.53 1.04,-5.91 31.51,5.55 c 0.885879,0.160425 1.653606,0.708589 2.092959,1.494392 C 48.492312,43.320196 48.557253,44.261297 48.23,45.1 Z" fill="#f9eab0" data-original="#f9eab0" class="" style="fill:#ffffff;display:inline" inkscape:label="path18" />
</svg>