<svg xmlns="http://www.w3.org/2000/svg" version="1.1" xmlns:xlink="http://www.w3.org/1999/xlink" xmlns:svgjs="http://svgjs.com/svgjs" width="512" height="512" x="0" y="0" viewBox="0 0 511 511.999" style="enable-background:new 0 0 512 512" xml:space="preserve"><g><path xmlns="http://www.w3.org/2000/svg" d="m409.421875 0h-357.476563c-6.484374 0-11.789062 5.304688-11.789062 11.789062v488.421876c0 6.484374 5.304688 11.789062 11.789062 11.789062h357.476563c6.484375 0 11.789063-5.304688 11.789063-11.789062 0-4.585938 0-479.886719 0-488.421876 0-6.484374-5.304688-11.789062-11.789063-11.789062zm0 0" fill="#e4eaf8" data-original="#e4eaf8"/><g xmlns="http://www.w3.org/2000/svg" fill="#c7d2e5"><path d="m71.0625 500.210938v-488.421876c0-6.484374 5.308594-11.789062 11.789062-11.789062h-30.90625c-6.484374 0-11.789062 5.304688-11.789062 11.789062v488.421876c0 6.484374 5.304688 11.789062 11.789062 11.789062h30.90625c-6.480468 0-11.789062-5.304688-11.789062-11.789062zm0 0" fill="#c7d2e5" data-original="#c7d2e5"/><path d="m330.554688 119.824219h-169.097657c-4.265625 0-7.726562-3.460938-7.726562-7.726563 0-4.269531 3.460937-7.726562 7.726562-7.726562h169.097657c4.265624 0 7.726562 3.457031 7.726562 7.726562 0 4.265625-3.460938 7.726563-7.726562 7.726563zm0 0" fill="#c7d2e5" data-original="#c7d2e5"/><path d="m330.554688 177.386719h-169.097657c-4.265625 0-7.726562-3.460938-7.726562-7.730469 0-4.265625 3.460937-7.726562 7.726562-7.726562h169.097657c4.265624 0 7.726562 3.460937 7.726562 7.726562 0 4.269531-3.460938 7.730469-7.726562 7.730469zm0 0" fill="#c7d2e5" data-original="#c7d2e5"/><path d="m330.554688 234.945312h-169.097657c-4.265625 0-7.726562-3.457031-7.726562-7.726562s3.460937-7.726562 7.726562-7.726562h169.097657c4.265624 0 7.726562 3.457031 7.726562 7.726562s-3.460938 7.726562-7.726562 7.726562zm0 0" fill="#c7d2e5" data-original="#c7d2e5"/><path d="m316.074219 292.507812h-154.617188c-4.265625 0-7.726562-3.460937-7.726562-7.726562 0-4.269531 3.460937-7.726562 7.726562-7.726562h154.617188c4.265625 0 7.726562 3.457031 7.726562 7.726562 0 4.265625-3.460937 7.726562-7.726562 7.726562zm0 0" fill="#c7d2e5" data-original="#c7d2e5"/><path d="m289.21875 350.066406h-127.761719c-4.265625 0-7.726562-3.457031-7.726562-7.726562 0-4.265625 3.460937-7.726563 7.726562-7.726563h127.761719c4.269531 0 7.730469 3.460938 7.730469 7.726563 0 4.269531-3.460938 7.726562-7.730469 7.726562zm0 0" fill="#c7d2e5" data-original="#c7d2e5"/><path d="m262.378906 407.628906h-100.921875c-4.265625 0-7.726562-3.457031-7.726562-7.726562 0-4.269532 3.460937-7.726563 7.726562-7.726563h100.921875c4.265625 0 7.726563 3.457031 7.726563 7.726563 0 4.269531-3.460938 7.726562-7.726563 7.726562zm0 0" fill="#c7d2e5" data-original="#c7d2e5"/><path d="m125.324219 119.824219h-17.097657c-4.265624 0-7.726562-3.460938-7.726562-7.726563 0-4.269531 3.457031-7.726562 7.726562-7.726562h17.097657c4.265625 0 7.726562 3.457031 7.726562 7.726562 0 4.265625-3.457031 7.726563-7.726562 7.726563zm0 0" fill="#c7d2e5" data-original="#c7d2e5"/><path d="m125.324219 177.386719h-17.097657c-4.265624 0-7.726562-3.460938-7.726562-7.730469 0-4.265625 3.457031-7.726562 7.726562-7.726562h17.097657c4.265625 0 7.726562 3.460937 7.726562 7.726562 0 4.269531-3.457031 7.730469-7.726562 7.730469zm0 0" fill="#c7d2e5" data-original="#c7d2e5"/><path d="m125.324219 234.945312h-17.097657c-4.265624 0-7.726562-3.457031-7.726562-7.726562s3.457031-7.726562 7.726562-7.726562h17.097657c4.265625 0 7.726562 3.457031 7.726562 7.726562s-3.457031 7.726562-7.726562 7.726562zm0 0" fill="#c7d2e5" data-original="#c7d2e5"/><path d="m125.324219 292.507812h-17.097657c-4.265624 0-7.726562-3.460937-7.726562-7.726562 0-4.269531 3.457031-7.726562 7.726562-7.726562h17.097657c4.265625 0 7.726562 3.457031 7.726562 7.726562 0 4.265625-3.457031 7.726562-7.726562 7.726562zm0 0" fill="#c7d2e5" data-original="#c7d2e5"/><path d="m125.324219 350.066406h-17.097657c-4.265624 0-7.726562-3.457031-7.726562-7.726562 0-4.265625 3.457031-7.726563 7.726562-7.726563h17.097657c4.265625 0 7.726562 3.460938 7.726562 7.726563 0 4.269531-3.457031 7.726562-7.726562 7.726562zm0 0" fill="#c7d2e5" data-original="#c7d2e5"/><path d="m125.324219 407.628906h-17.097657c-4.265624 0-7.726562-3.457031-7.726562-7.726562 0-4.269532 3.457031-7.726563 7.726562-7.726563h17.097657c4.265625 0 7.726562 3.457031 7.726562 7.726563 0 4.269531-3.457031 7.726562-7.726562 7.726562zm0 0" fill="#c7d2e5" data-original="#c7d2e5"/></g><path xmlns="http://www.w3.org/2000/svg" d="m259.726562 379.613281 114.152344-244.8125 28.9375 13.492188-114.152344 244.816406zm0 0" fill="#f4b537" data-original="#f4b537"/><path xmlns="http://www.w3.org/2000/svg" d="m288.664062 393.109375 114.152344-244.816406 28.9375 13.496093-114.152344 244.8125zm0 0" fill="#feca57" data-original="#feca57"/><path xmlns="http://www.w3.org/2000/svg" d="m259.730469 379.617188-7.582031 77.4375c-.59375 6.050781 6.757812 9.476562 11.011718 5.136718l54.445313-55.585937zm0 0" fill="#f9e4c7" data-original="#f9e4c7"/><path xmlns="http://www.w3.org/2000/svg" d="m288.304688 392.941406-28.574219-13.324218-7.582031 77.4375c-.59375 6.050781 6.757812 9.476562 11.011718 5.136718l20.402344-20.832031zm0 0" fill="#f2d5b1" data-original="#f2d5b1"/><path xmlns="http://www.w3.org/2000/svg" d="m456.066406 109.675781 5.566406-11.933593c7.621094-16.347657.835938-35.792969-15.078124-43.214844-15.917969-7.421875-35.175782-.121094-42.796876 16.226562l-5.566406 11.933594zm0 0" fill="#ff6b6b" data-original="#ff6b6b"/><path xmlns="http://www.w3.org/2000/svg" d="m432.113281 84.003906c-1.558593-.726562-2.234375-2.582031-1.507812-4.144531l4.246093-9.105469c3.089844-6.617187 8.082032-11.753906 13.992188-15.03125-.746094-.421875-1.503906-.828125-2.292969-1.195312-15.914062-7.421875-35.171875-.121094-42.796875 16.226562l-5.5625 11.933594 57.875 26.988281 5.554688-11.914062zm0 0" fill="#ee5253" data-original="#ee5253"/><path xmlns="http://www.w3.org/2000/svg" d="m72.085938 62.261719h-63.859376c-4.265624 0-7.726562-3.457031-7.726562-7.726563 0-4.269531 3.457031-7.726562 7.726562-7.726562h63.859376c4.265624 0 7.726562 3.457031 7.726562 7.726562 0 4.269532-3.460938 7.726563-7.726562 7.726563zm0 0" fill="#576574" data-original="#576574"/><path xmlns="http://www.w3.org/2000/svg" d="m72.085938 119.824219h-63.859376c-4.265624 0-7.726562-3.460938-7.726562-7.726563 0-4.269531 3.457031-7.726562 7.726562-7.726562h63.859376c4.265624 0 7.726562 3.457031 7.726562 7.726562 0 4.265625-3.460938 7.726563-7.726562 7.726563zm0 0" fill="#576574" data-original="#576574"/><path xmlns="http://www.w3.org/2000/svg" d="m72.085938 177.386719h-63.859376c-4.265624 0-7.726562-3.460938-7.726562-7.730469 0-4.265625 3.457031-7.726562 7.726562-7.726562h63.859376c4.265624 0 7.726562 3.460937 7.726562 7.726562 0 4.269531-3.460938 7.730469-7.726562 7.730469zm0 0" fill="#576574" data-original="#576574"/><path xmlns="http://www.w3.org/2000/svg" d="m72.085938 234.945312h-63.859376c-4.265624 0-7.726562-3.457031-7.726562-7.726562s3.457031-7.726562 7.726562-7.726562h63.859376c4.265624 0 7.726562 3.457031 7.726562 7.726562s-3.460938 7.726562-7.726562 7.726562zm0 0" fill="#576574" data-original="#576574"/><path xmlns="http://www.w3.org/2000/svg" d="m72.085938 292.507812h-63.859376c-4.265624 0-7.726562-3.460937-7.726562-7.726562 0-4.269531 3.457031-7.726562 7.726562-7.726562h63.859376c4.265624 0 7.726562 3.457031 7.726562 7.726562 0 4.265625-3.460938 7.726562-7.726562 7.726562zm0 0" fill="#576574" data-original="#576574"/><path xmlns="http://www.w3.org/2000/svg" d="m72.085938 350.066406h-63.859376c-4.265624 0-7.726562-3.457031-7.726562-7.726562 0-4.265625 3.457031-7.726563 7.726562-7.726563h63.859376c4.265624 0 7.726562 3.460938 7.726562 7.726563 0 4.269531-3.460938 7.726562-7.726562 7.726562zm0 0" fill="#576574" data-original="#576574"/><path xmlns="http://www.w3.org/2000/svg" d="m72.085938 407.628906h-63.859376c-4.265624 0-7.726562-3.457031-7.726562-7.726562 0-4.269532 3.457031-7.726563 7.726562-7.726563h63.859376c4.265624 0 7.726562 3.457031 7.726562 7.726563 0 4.269531-3.460938 7.726562-7.726562 7.726562zm0 0" fill="#576574" data-original="#576574"/><path xmlns="http://www.w3.org/2000/svg" d="m72.085938 465.191406h-63.859376c-4.265624 0-7.726562-3.460937-7.726562-7.726562 0-4.269532 3.457031-7.730469 7.726562-7.730469h63.859376c4.265624 0 7.726562 3.460937 7.726562 7.730469 0 4.265625-3.460938 7.726562-7.726562 7.726562zm0 0" fill="#576574" data-original="#576574"/><path xmlns="http://www.w3.org/2000/svg" d="m256.082031 416.894531-3.933593 40.160157c-.59375 6.050781 6.757812 9.480468 11.011718 5.136718l28.238282-28.828125zm0 0" fill="#576574" data-original="#576574"/><path xmlns="http://www.w3.org/2000/svg" d="m284.652344 430.21875-28.570313-13.324219-1.410156 14.394531-2.523437 25.765626c-.59375 6.050781 6.757812 9.476562 11.011718 5.132812l20.402344-20.828125zm0 0" fill="#3e4b5a" data-original="#3e4b5a"/><path xmlns="http://www.w3.org/2000/svg" d="m447.398438 137.03125-64.851563-30.242188c-2.28125-1.0625-4.996094-.074218-6.058594 2.207032l-8.6875 18.625c-1.0625 2.28125-.074219 4.996094 2.207031 6.0625l64.851563 30.238281c2.28125 1.066406 4.996094.078125 6.0625-2.207031l8.683594-18.621094c1.066406-2.285156.078125-4.996094-2.207031-6.0625zm0 0" fill="#8ac2ff" data-original="#8ac2ff"/><path xmlns="http://www.w3.org/2000/svg" d="m459.9375 110.140625-64.847656-30.242187c-2.285156-1.0625-5-.074219-6.0625 2.207031l-8.683594 18.625c-1.066406 2.28125-.078125 4.996093 2.203125 6.058593l64.851563 30.242188c2.285156 1.066406 5 .078125 6.0625-2.207031l8.683593-18.621094c1.066407-2.285156.078125-5-2.207031-6.0625zm0 0" fill="#54a0ff" data-original="#54a0ff"/><path xmlns="http://www.w3.org/2000/svg" d="m396.109375 133.679688c-2.28125-1.0625-3.269531-3.777344-2.207031-6.0625l5.949218-12.757813-17.300781-8.070313c-2.285156-1.0625-5-.074218-6.0625 2.207032l-8.683593 18.621094c-1.066407 2.285156-.078126 5 2.207031 6.0625l64.851562 30.242187c2.28125 1.0625 4.996094.074219 6.058594-2.207031l2.734375-5.863282zm0 0" fill="#54a0ff" data-original="#54a0ff"/><path xmlns="http://www.w3.org/2000/svg" d="m408.648438 106.789062c-2.28125-1.0625-3.269532-3.777343-2.207032-6.058593l5.949219-12.761719-17.300781-8.070312c-2.285156-1.0625-5-.074219-6.0625 2.207031l-8.683594 18.625c-1.066406 2.28125-.078125 4.996093 2.207031 6.058593l64.851563 30.242188c2.28125 1.066406 4.996094.078125 6.058594-2.207031l2.734374-5.863281zm0 0" fill="#338def" data-original="#338def"/></g></svg>