<svg xmlns="http://www.w3.org/2000/svg" viewBox="0 0 512 512" style="enable-background:new 0 0 512 512" xml:space="preserve"><path xmlns="http://www.w3.org/2000/svg" d="m495.179 167.997.259-91.258c-.001.301-.026.602-.038.902.419-10.952-6.2-21.991-19.877-30.525a71.826 71.826 0 0 0-2.072-1.243c-29.331-16.937-76.728-16.94-105.868-.006-12.894 7.493-20.037 17.055-21.458 26.846-.496 3.375-7.501 4.897-11.655 2.499L245.7 23.96l-78.546 45.646c-1.406.817-2.012 1.83-1.985 2.82-.001-.023-.012-.046-.012-.07l-.257 90.525c-18.967-.082-37.914-4.3-52.434-12.683-12.995-7.503-20.247-17.075-21.778-26.875-.156-1.018-.904-1.866-1.984-2.491-2.505-1.446-6.799-1.684-9.682-.008L.475 166.469 0 334.292l16.826 9.714-.259 91.259c-.03 10.654 6.613 21.322 19.918 29.623a71.77 71.77 0 0 0 2.071 1.243c29.325 16.93 76.72 16.936 105.86.001 12.894-7.493 20.037-17.055 21.458-26.846.496-3.375 7.501-4.897 11.656-2.499l88.769 51.251 78.459-45.595c1.374-.798 1.997-1.782 1.999-2.749l.256-90.462c18.103.052 36.201 3.844 50.364 11.385.771.411 1.523.828 2.258 1.252 12.952 7.477 20.211 17.005 21.771 26.772.158 1.011.902 1.855 1.976 2.475 2.505 1.446 6.805 1.68 9.681.008l78.459-45.595.478-167.821-16.821-9.711z" fill="#f18700" data-original="#f18700"/><g xmlns="http://www.w3.org/2000/svg" style="enable-background:new"><path d="m239.967 119.749-.476 167.823c.03-10.648-6.607-21.311-19.897-29.608a74.798 74.798 0 0 0-2.094-1.257c-12.997-7.504-29.552-11.675-46.477-12.524-1.749-.088-3.211-.517-4.289-1.14-1.312-.758-2.054-1.801-2.052-2.864l.475-167.823c-.003 1.063.74 2.107 2.052 2.864 1.078.623 2.54 1.051 4.289 1.14 16.926.85 33.48 5.02 46.477 12.524.709.41 1.406.829 2.094 1.257 13.291 8.298 19.928 18.961 19.898 29.608z" fill="#f18700" data-original="#f18700"/><path d="m495.437 76.738-.475 167.823c-.029 10.499-6.541 20.983-19.549 29.167-13.195 8.298-30.551 12.891-48.39 13.797-3.852.194-6.291 2.044-6.297 3.965l.475-167.823c.005-1.923 2.445-3.771 6.297-3.965 17.84-.906 35.195-5.499 48.39-13.797 13.008-8.183 19.52-18.668 19.549-29.167z" fill="#d07400" data-original="#d07400"/><path fill="#f18700" data-original="#f18700" d="m89.246 217.72-.477 167.823L0 334.292l.475-167.823z"/><path d="m91.276 220.512-.475 167.823c.003-.982-.629-1.983-2.03-2.792l.475-167.823c1.401.809 2.032 1.81 2.03 2.792z" fill="#ffa834" data-original="#ffa834"/><path fill="#d07400" data-original="#d07400" d="m512 177.708-.475 167.823-78.46 45.596.476-167.823z"/><path d="m272.044 392.314.475-167.823c.032-11.558 7.995-23.099 23.9-31.65 28.345-15.234 72.883-15.249 101.434-.046.771.411 1.523.828 2.258 1.252 12.951 7.477 20.211 17.005 21.771 26.772.158 1.011.902 1.855 1.976 2.475 2.505 1.446 6.805 1.68 9.681.008l-.475 167.823c-2.876 1.671-7.177 1.437-9.681-.008-1.074-.621-1.818-1.464-1.976-2.475-1.559-9.768-8.82-19.294-21.771-26.772a77.084 77.084 0 0 0-2.258-1.252c-28.552-15.203-73.089-15.188-101.435.046-15.904 8.552-23.865 20.093-23.899 31.65z" fill="#f18700" data-original="#f18700"/><g fill="#d07400"><path d="m347.234 271.872-.475 167.823c-.003.968-.625 1.951-1.999 2.749l.475-167.823c1.374-.798 1.996-1.781 1.999-2.749zM16.568 435.266l.475-167.823c-.03 10.654 6.613 21.322 19.918 29.623a71.77 71.77 0 0 0 2.071 1.243c29.325 16.931 76.72 16.936 105.86.001 12.894-7.493 20.037-17.055 21.458-26.845.496-3.375 7.501-4.897 11.655-2.499l-.475 167.823c-4.153-2.398-11.158-.876-11.655 2.499-1.421 9.79-8.565 19.353-21.458 26.846-29.14 16.935-76.535 16.929-105.86-.001-.7-.404-1.393-.819-2.071-1.243-13.305-8.302-19.948-18.97-19.918-29.624z" data-original="#d07400"/><path data-original="#d07400" d="m345.235 274.621-.476 167.823L266.3 488.04l.476-167.823z"/></g><path fill="#f18700" data-original="#f18700" d="M266.776 320.217 266.3 488.04l-88.77-51.251.476-167.823z"/><path d="M473.451 45.872c.7.404 1.393.82 2.072 1.243 26.41 16.478 26.573 42.302.366 58.79-13.195 8.298-30.551 12.891-48.39 13.797-5.816.294-8.412 4.361-4.268 6.754L512 177.708l-78.459 45.595c-2.876 1.671-7.177 1.437-9.681-.008-1.074-.621-1.818-1.464-1.976-2.475-1.559-9.768-8.82-19.294-21.771-26.772a77.084 77.084 0 0 0-2.258-1.252c-28.552-15.203-73.089-15.188-101.434.046-31.271 16.812-31.836 45.18-1.806 62.518 12.943 7.473 29.422 11.641 46.285 12.512 1.749.091 3.21.521 4.286 1.143 2.506 1.447 2.929 3.933.049 5.607l-78.459 45.595-88.769-51.251c-4.153-2.398-11.158-.876-11.655 2.499-1.421 9.79-8.565 19.353-21.458 26.845-29.14 16.935-76.535 16.929-105.86-.001-.7-.404-1.393-.819-2.071-1.243-26.419-16.483-26.573-42.302-.366-58.801 13.187-8.292 30.542-12.887 48.382-13.792 5.824-.288 8.412-4.361 4.268-6.754L.476 166.469l78.546-45.646c2.883-1.675 7.177-1.438 9.682.008 1.08.624 1.829 1.473 1.984 2.491 1.531 9.8 8.782 19.372 21.778 26.876 30.031 17.338 79.004 16.918 107.909-1.25 26.242-16.488 26.106-42.316-.305-58.805a74.798 74.798 0 0 0-2.094-1.257c-12.997-7.504-29.552-11.675-46.477-12.524-1.749-.088-3.211-.517-4.289-1.14-2.508-1.448-2.935-3.941-.054-5.614L245.7 23.962l88.769 51.251c4.153 2.398 11.158.876 11.655-2.499 1.421-9.79 8.564-19.353 21.458-26.846 29.141-16.936 76.537-16.932 105.869.004z" fill="#ffa834" data-original="#ffa834"/></g></svg>