<svg xmlns="http://www.w3.org/2000/svg" version="1.1" xmlns:xlink="http://www.w3.org/1999/xlink" xmlns:svgjs="http://svgjs.com/svgjs" width="512" height="512" x="0" y="0" viewBox="0 0 512 512" style="enable-background:new 0 0 512 512" xml:space="preserve"><g><g xmlns="http://www.w3.org/2000/svg"><path d="m411.793 427.34v14.216c0 13.485-130.096 70.444-143.582 70.444h-144.652v-84.66c0-.835.01-1.669.041-2.493.288-10.106 2.359-19.748 5.913-28.649 6.531-16.39 18.08-30.246 32.739-39.662 5.038-3.245 10.446-5.965 16.153-8.077 7.108 2.462 171.422 2.462 178.541 0h.01c32.018 11.888 54.837 42.711 54.837 78.881z" fill="#6ec17d" data-original="#6ec17d"/><path d="m411.88 251.032h.202c17.341 0 31.392-14.063 31.392-31.392 0-17.341-14.051-31.404-31.392-31.404-.226 0-.451 0-.677.012h-287.454c-.226-.012-.451-.012-.677-.012-17.341 0-31.392 14.063-31.392 31.404 0 17.329 14.051 31.392 31.392 31.392h.202" fill="#f1b986" data-original="#f1b986"/><path d="m404.659 106.261c-91.321-8.853-182.641-8.853-273.962 0-7.087 56.78-9.174 113.56-6.262 170.339 2.12 41.333 35.194 74.232 76.535 76.184 44.472 2.1 88.943 2.1 133.415 0 41.341-1.952 74.415-34.851 76.535-76.184 2.913-56.779.826-113.559-6.261-170.339z" fill="#f1d0a5" data-original="#f1d0a5"/><path d="m130.702 106.252c45.652-4.428 91.318-6.635 136.985-6.635-23.119 0-46.238 2.234-69.357 6.703-3.597 57.328-4.646 114.656-3.174 171.97.967 37.724 14.754 68.485 32.846 75.502-9.005-.245-18.024-.586-27.029-1.008-41.334-1.948-74.412-34.849-76.537-76.183-2.902-56.783-.818-113.566 6.266-170.349z" fill="#f1b986" data-original="#f1b986"/><path d="m267.683 448.978c-4.267 0-7.726-3.459-7.726-7.726v-78.958c0-4.267 3.459-7.726 7.726-7.726s7.726 3.459 7.726 7.726v78.958c0 4.266-3.459 7.726-7.726 7.726z" fill="#5ea570" data-original="#5ea570"/><path d="m311.44 354.351c28.126 28.126 10.359 59.537 10.359 59.537-34.597-7.095-53.979-25.889-53.979-25.889s-19.382 18.794-53.979 25.889c0 0-17.767-31.411 10.359-59.537" fill="#5ea570" data-original="#5ea570"/><path d="m178.395 409.353-54.445 16.647-18.286-59.833-42.804-140.042c-.855-2.771-1.257-5.584-1.257-8.334 0-12.187 7.891-23.457 20.15-27.207 15.041-4.595 30.947 3.863 35.541 18.904l.505 1.648 11.105-4.687c3.379-1.422 6.985 1.535 6.222 5.141l-7.005 33.295 32.265 105.563z" fill="#f1d0a5" data-original="#f1d0a5"/><path d="m75.82 220.757 61.564 201.143-13.424 4.1-61.1-199.876c-.845-2.771-1.246-5.573-1.246-8.324 0-12.187 7.891-23.467 20.15-27.217 1.401-.433 2.823-.742 4.234-.948-7.149 5.347-11.425 13.815-11.425 22.798 0 2.751.402 5.553 1.247 8.324z" fill="#f1b986" data-original="#f1b986"/><path d="m311.276 353.678c.018.224.018.448.018.673 0 18.582-19.523 33.648-43.611 33.648s-43.62-15.066-43.62-33.648c0-.224 0-.448.018-.673" fill="#f1b986" data-original="#f1b986"/><path d="m354.476 441.555v23.792h-44.402c-23.12 0-41.863 18.743-41.863 41.863v4.79h119.166c13.486 0 24.419-10.933 24.419-24.419v-46.025h-57.32z" fill="#f1d0a5" data-original="#f1d0a5"/><path d="m178.395 409.353-41.011 12.537-13.434 4.11-.35-1.154-17.936-58.679 13.475-3.873 41.249-11.847 1.864 6.088z" fill="#6ec17d" data-original="#6ec17d"/><path d="m123.559 427.34c0-.835.01-1.669.041-2.493l-17.935-58.679 13.475-3.874 10.374 33.903 7.871 25.693v.01s13.969 32.533 13.969 90.1h-27.794v-84.66z" fill="#5ea570" data-original="#5ea570"/><path d="m354.476 441.251h24.096v24.096h-24.096z" fill="#f1b986" data-original="#f1b986"/><path d="m354.476 425.995h24.096v15.256h-24.096z" fill="#5ea570" data-original="#5ea570"/><path d="m310.078 465.343h19.388c-23.128 0-41.866 18.749-41.866 41.867v4.79h-19.388v-4.79c-.001-23.118 18.738-41.867 41.866-41.867z" fill="#f1b986" data-original="#f1b986"/><path d="m267.678 287.757c-15.455 0-29.725-9.024-36.353-22.989-1.83-3.855-.188-8.463 3.667-10.293s8.463-.187 10.293 3.667c4.083 8.604 12.873 14.162 22.393 14.162s18.309-5.559 22.392-14.162c1.829-3.855 6.439-5.497 10.293-3.668 3.855 1.829 5.497 6.438 3.668 10.293-6.628 13.965-20.897 22.99-36.353 22.99z" fill="#da4a54" data-original="#da4a54"/><g fill="#454045"><path d="m200.836 189.202c-7.183 0-13.027 8.708-13.027 19.411s5.844 19.412 13.027 19.412 13.027-8.708 13.027-19.412-5.844-19.411-13.027-19.411z" fill="#454045" data-original="#454045"/><path d="m334.521 189.202c-7.183 0-13.027 8.708-13.027 19.411s5.844 19.412 13.027 19.412 13.027-8.708 13.027-19.412-5.844-19.411-13.027-19.411z" fill="#454045" data-original="#454045"/></g><path d="m343.74 153.478c-52.49 20.277-127.049 11.335-164.625-26.24 0 0-8.923 61.009-55.153 61.009l-20.16 6.78c-53.844-211.348 61-154.877 61-154.877 10.842-21.012 26.635-29.711 43.136-31.809 1.453-.179 2.906-.314 4.367-.404.117 0 .233-.009.35-.018 11.622-.619 23.388 1.74 33.845 5.103 3.641 1.175 7.13 2.466 10.394 3.802 13.138 5.372 22.707 11.407 24.716 12.699.26.179.395.269.395.269 11.819-15.641 23.092-29.792 35.486-29.792 5.085 0 8.6 1.946 10.959 5.058 8.941 11.721 1.596 39.907 1.004 42.122l-.027.099c.009-.018.018-.054.036-.099l.063-.161c1.587-4 19.344-47.019 51.189-47.019 2.009 0 3.811.188 5.417.547 23.738 5.246 5.157 46.768 3.112 51.162l-.054.126c-.054.108-.09.188-.108.224 1.013-1.291 40.768-51.763 58.435-28.608.009.018.009.018.018.027 17.82 23.487-51.332 109.732-103.795 130z" fill="#665e66" data-original="#665e66"/><g fill="#454045"><path d="m447.517 23.451h-.009c-8.932-8.923-39.871 33.199-58.453 28.635l.135-.251c-.054.108-.09.188-.108.224 1.013-1.291 40.768-51.763 58.435-28.608z" fill="#454045" data-original="#454045"/><path d="m386.132.547c-13.419-3.048-25.857 22.494-32.885 40.625-3.398 8.768-13.925 12.287-21.918 7.332l-1.92-1.19.018-.036.027-.099h.009l.063-.161c1.587-3.999 19.344-47.018 51.189-47.018 2.009 0 3.811.188 5.417.547z" fill="#454045" data-original="#454045"/><path d="m207.935 8.34c-38.401 6.771-52.911 94.809-28.823 118.897 0 0-8.923 61.009-55.153 61.009l-20.16 6.78c-53.844-211.348 61-154.877 61-154.877 10.843-21.012 26.635-29.71 43.136-31.809z" fill="#454045" data-original="#454045"/><path d="m328.45 5.058c-13.497-13.497-22.492 55.718-52.875 66.802s-33.226-3.085-33.226-3.085v-.009c14.959-5.533 27.585-23.021 39.647-38.984.009.009.009.009.009.009.368-.493.735-.977 1.103-1.462.457-.619.933-1.238 1.399-1.847 10.923-14.268 21.469-26.482 32.984-26.482 5.085 0 8.6 1.946 10.959 5.058z" fill="#454045" data-original="#454045"/></g></g></g></svg>